<svg width="1440" height="1440" xmlns="http://www.w3.org/2000/svg">
    <rect fill="#673AB7" height="1440" width="1440" />
    <path
        d="m656.184865,277.852534l-204.400234,0l-192.884728,733.633704l204.400234,0l192.884728,-733.633704z"
        fill="#010424" />
    <path
        d="m1103.370354,199.163242c-56.617905,0 -103.639555,8.156817 -139.625512,23.990638c-36.945582,16.313634 -67.173786,41.263897 -89.724985,74.370977c-21.591574,31.667642 -40.304272,74.370977 -55.65828,126.670568l-20.152136,73.411352c-10.555881,36.465769 -22.5512,65.254535 -35.026331,85.406671c-11.995319,18.712697 -25.909889,31.187829 -42.223523,38.864833c-17.273259,8.156817 -39.824459,13.434757 -67.173786,14.874195l-14.394383,0.959626l-44.622586,164.575775l22.5512,1.439438c26.869514,1.919251 46.541837,7.677004 58.057344,17.273259c10.076068,8.63663 14.394383,23.031012 13.434757,43.662961c-0.479813,10.076068 -2.878877,23.510825 -6.717379,39.824459c-4.318315,17.273259 -8.63663,35.026331 -13.91457,52.779403c-5.27794,18.232885 -10.555881,37.425395 -15.354008,56.617905c-5.27794,20.631949 -7.677004,37.905208 -8.63663,51.819778c-3.358689,63.335284 14.394383,109.397308 52.779403,137.226448c35.985957,25.909889 80.12873,38.864833 131.948508,38.864833l58.537156,0l47.02165,-170.813341l-27.349327,0c-58.057344,0 -81.568169,-17.273259 -62.375658,-83.007607c1.919251,-5.27794 4.798128,-15.833821 9.116442,-31.667642c4.318315,-16.313634 8.63663,-34.066706 12.954944,-52.29959c4.318315,-19.19251 6.717379,-37.425395 7.677004,-54.698654c1.439438,-29.268578 -2.399064,-56.138092 -11.515506,-80.12873c-6.237566,-16.793446 -16.313634,-31.667642 -29.268578,-46.062025c21.591574,-13.434757 40.784084,-27.349327 56.617905,-42.703335c22.071387,-21.111761 41.263897,-47.981276 56.617905,-79.648918c14.874195,-31.187829 27.82914,-71.012288 37.905208,-118.513751l0,0c15.833821,-62.855471 35.026331,-113.235811 131.948508,-113.235811l15.833821,0l48.461088,-170.813341l-77.729667,0l0,0.959626z"
        fill="white" />
</svg>